<?xml version="1.0" standalone="no"?>
<!DOCTYPE svg PUBLIC "-//W3C//DTD SVG 20010904//EN"
 "http://www.w3.org/TR/2001/REC-SVG-20010904/DTD/svg10.dtd">
<svg version="1.0" xmlns="http://www.w3.org/2000/svg"
 width="300.000000pt" height="338.000000pt" viewBox="0 0 300.000000 338.000000"
 preserveAspectRatio="xMidYMid meet">
<metadata>
Created by potrace 1.10, written by Peter Selinger 2001-2011
</metadata>
<g transform="translate(0.000000,338.000000) scale(0.050000,-0.050000)"
fill="#fff" stroke="none">
<path d="M3060 3380 l0 -3383 105 59 c58 33 681 381 1385 774 704 393 1318
736 1365 763 l85 49 0 449 0 449 -360 0 -360 0 0 -237 0 -238 -295 -165 c-926
-519 -1189 -663 -1196 -655 -5 5 -7 968 -4 2142 l5 2133 310 -177 c171 -97
506 -287 745 -423 l435 -246 0 -227 0 -227 360 0 360 0 0 437 0 438 -275 156
c-151 85 -567 321 -925 524 -357 203 -857 487 -1110 630 -253 143 -498 283
-545 310 l-85 49 0 -3384z"/>
<path d="M1740 6108 c-600 -345 -1236 -711 -1415 -813 l-325 -185 1 -1730 1
-1730 1154 -648 c635 -356 1235 -692 1334 -748 99 -55 218 -122 265 -149 l85
-49 0 417 0 417 -1060 598 -1060 599 0 1301 0 1302 55 31 c112 65 1296 744
1310 753 8 4 15 -370 15 -833 l0 -841 -630 0 -631 0 6 -355 5 -355 625 -5 624
-6 6 -562 5 -561 358 -198 c197 -109 362 -195 365 -191 4 3 5 1168 2 2587 l-5
2581 -1090 -627z"/>
</g>
</svg>
