<?xml version="1.0" standalone="no"?>
<!DOCTYPE svg PUBLIC "-//W3C//DTD SVG 20010904//EN"
 "http://www.w3.org/TR/2001/REC-SVG-20010904/DTD/svg10.dtd">
<svg version="1.0" xmlns="http://www.w3.org/2000/svg"
 width="556.000000pt" height="676.000000pt" viewBox="0 0 556.000000 676.000000"
 preserveAspectRatio="xMidYMid meet">

<g transform="translate(0.000000,676.000000) scale(0.100000,-0.100000)"
fill="#000000" stroke="none">
<path d="M4500 6570 c0 -120 4 -190 10 -190 6 0 10 67 10 180 l0 180 405 0
405 0 0 -180 c0 -113 4 -180 10 -180 6 0 10 70 10 190 l0 190 -425 0 -425 0 0
-190z"/>
<path d="M2606 6178 c-11 -6 -38 -15 -60 -20 -61 -14 -181 -92 -196 -127 -17
-42 -41 -48 -64 -17 -19 25 -20 25 -45 7 -14 -10 -39 -21 -54 -25 -16 -4 -36
-20 -46 -37 -11 -17 -30 -36 -43 -43 -16 -8 -24 -22 -26 -44 -2 -23 -17 -46
-48 -77 -50 -50 -53 -60 -22 -68 12 -4 19 -9 15 -14 -16 -15 -96 -12 -197 6
-155 29 -199 43 -206 64 -5 17 -7 17 -18 1 -7 -9 -19 -15 -27 -12 -7 2 -57
-24 -111 -58 -95 -61 -666 -453 -761 -522 l-49 -35 29 -25 c15 -13 45 -36 65
-49 l37 -25 38 20 c21 11 63 23 94 25 72 7 98 -9 95 -56 -4 -48 -22 -75 -66
-97 -22 -11 -40 -26 -40 -33 0 -6 9 -40 20 -75 38 -122 42 -327 8 -442 -6 -19
-28 -72 -50 -118 l-39 -82 19 -25 c24 -31 18 -67 -13 -82 -19 -8 -27 -8 -36 3
-16 20 -56 17 -87 -4 -15 -11 -46 -27 -70 -37 l-42 -19 0 -462 0 -462 22 -6
c58 -15 147 5 155 35 3 10 9 19 13 19 5 0 15 3 24 6 22 8 66 -43 66 -77 0 -22
6 -30 25 -35 34 -8 31 -20 -6 -33 -27 -9 -32 -8 -36 9 -6 24 -30 26 -61 4 -19
-13 -21 -18 -11 -31 14 -16 11 -19 -51 -53 -19 -10 -50 -30 -69 -44 -19 -14
-39 -26 -43 -26 -4 0 -8 17 -8 38 0 39 24 72 63 85 9 4 17 11 17 16 0 10 -17
16 -73 25 l-27 5 0 -755 0 -754 -305 0 -305 0 0 -535 0 -535 200 0 c127 0 200
4 200 10 0 6 -70 10 -190 10 l-190 0 0 515 0 515 295 0 295 0 0 -630 0 -630
1540 0 c1531 0 1540 0 1540 20 0 11 4 20 10 20 5 0 7 -7 4 -15 -21 -53 68 3
773 488 l748 514 3 868 2 868 -87 -7 c-49 -3 -138 -13 -198 -21 -61 -8 -144
-15 -185 -15 -41 0 -118 -5 -170 -10 -157 -17 -586 -50 -720 -56 -165 -8 -250
8 -315 61 -25 21 -45 41 -45 45 0 15 54 30 113 30 34 0 89 4 122 9 33 5 134
12 225 15 91 3 203 10 250 16 47 5 166 16 265 25 99 8 207 20 240 25 33 6 141
13 240 16 99 3 199 7 223 10 l42 5 0 635 0 634 60 0 60 0 0 640 c0 420 -3 640
-10 640 -7 0 -10 -217 -10 -630 l0 -630 -50 0 -50 0 0 104 0 104 -330 1 c-368
1 -378 3 -420 65 -14 20 -48 48 -76 63 -28 14 -61 42 -73 61 -21 31 -23 46
-23 173 0 80 -4 139 -9 139 -5 0 -8 -20 -6 -45 3 -24 0 -46 -5 -47 -5 -2 -5
-32 0 -78 5 -41 6 -79 2 -84 -5 -5 -6 -14 -4 -20 8 -22 -40 -54 -106 -71 -72
-19 -156 -60 -164 -82 -3 -7 1 -31 10 -53 24 -59 17 -69 -61 -96 -38 -13 -77
-27 -85 -31 -8 -3 -19 -7 -23 -7 -4 -1 -12 -8 -17 -16 -5 -8 -10 -11 -10 -6 0
5 -7 3 -15 -4 -8 -7 -22 -10 -30 -6 -9 3 -15 0 -15 -10 0 -8 4 -12 10 -9 7 4
7 -3 0 -20 -11 -28 -5 -49 10 -40 5 3 5 -9 -1 -27 -11 -39 1 -87 43 -176 l30
-64 34 33 c19 18 36 41 40 51 7 24 21 23 35 -3 17 -33 30 -198 18 -243 -19
-69 -29 -91 -38 -78 -4 7 -6 -22 -3 -65 5 -88 0 -97 -59 -106 -25 -4 -46 0
-65 12 -31 19 -127 42 -159 39 -26 -2 -95 19 -117 36 -10 7 -21 27 -24 43 -5
24 0 35 25 58 21 21 27 32 18 37 -20 13 -57 9 -74 -7 -8 -8 -18 -13 -23 -10
-4 3 -22 -9 -40 -25 -44 -41 -120 -91 -139 -92 -9 -1 -26 2 -38 6 -13 4 -23 3
-23 -2 0 -5 -12 -7 -26 -4 -19 3 -25 1 -20 -7 4 -6 -10 -3 -31 6 -21 10 -39
21 -41 26 -2 4 -10 7 -18 7 -8 0 -14 5 -14 10 0 6 -7 10 -15 10 -8 0 -15 6
-15 13 0 18 -68 79 -80 72 -5 -3 -15 3 -22 15 -7 11 -18 20 -25 20 -7 0 -10 7
-7 15 4 8 10 12 15 9 10 -6 12 9 3 19 -10 10 -34 -4 -34 -20 0 -8 -5 -11 -10
-8 -6 4 -8 10 -5 15 3 5 1 11 -4 15 -6 3 -8 12 -5 19 4 10 -3 12 -23 10 -27
-4 -27 -4 -4 6 15 7 21 15 17 26 -3 9 -6 17 -6 19 0 2 -9 1 -20 -2 -18 -5 -18
-3 -7 26 12 33 26 38 60 20 16 -9 22 -9 25 -1 2 8 8 7 19 -3 16 -17 38 -20 28
-5 -3 6 -2 10 3 10 6 0 12 -7 16 -15 3 -8 12 -15 19 -15 8 0 20 -7 27 -15 7
-9 19 -14 26 -11 6 2 15 2 19 -2 4 -4 10 -7 13 -7 19 -2 52 -17 52 -25 0 -4
19 -16 43 -26 56 -23 140 -20 192 7 22 12 51 23 64 26 13 2 43 12 65 22 23 10
61 21 86 24 25 2 40 3 34 0 -27 -10 60 -124 100 -131 12 -2 16 6 18 38 1 22 2
55 4 73 1 21 -6 40 -19 54 -11 13 -21 31 -22 40 -1 10 -8 31 -14 47 -14 35 0
81 31 97 10 5 16 14 13 19 -3 5 -1 11 3 14 5 3 8 19 7 36 -1 16 1 30 5 30 4 0
7 6 7 14 0 9 -8 13 -23 10 -13 -2 -25 0 -29 5 -3 6 -26 13 -50 17 -25 3 -45 9
-45 13 0 4 -13 12 -29 18 -23 8 -31 8 -35 -2 -3 -8 -13 -11 -25 -8 -12 3 -29
-1 -38 -8 -12 -10 -15 -10 -9 -1 10 16 -20 28 -37 13 -10 -8 -17 -7 -25 1 -9
9 -12 9 -12 1 0 -14 -112 -9 -172 8 -34 9 -42 7 -72 -16 -39 -30 -52 -31 -52
-6 0 11 6 17 12 14 8 -3 11 2 7 16 -3 12 -1 21 6 21 6 0 11 5 11 11 0 6 9 22
20 36 11 14 20 23 20 19 0 -8 49 23 72 47 10 9 26 17 36 17 11 0 27 9 36 19
18 20 31 21 55 7 10 -7 12 -6 6 4 -6 10 -3 12 13 8 12 -3 29 0 39 7 12 9 25
10 41 4 17 -7 29 -6 40 3 8 7 29 13 46 14 63 3 70 8 71 47 0 21 -6 39 -12 42
-7 2 -13 18 -13 34 0 37 -15 48 -30 21 -6 -11 -15 -20 -21 -20 -6 0 -7 4 -4
10 3 6 -1 7 -9 4 -9 -3 -16 -12 -16 -20 0 -17 -1 -17 -35 -4 -20 8 -26 15 -22
30 6 23 -3 26 -22 8 -11 -10 -14 -10 -18 0 -3 6 -12 12 -22 12 -9 0 -23 -6
-30 -12 -8 -8 -11 -8 -8 -2 4 7 1 17 -6 23 -11 8 -13 6 -12 -10 1 -11 7 -24
14 -29 11 -6 11 -8 0 -12 -8 -3 -32 5 -54 16 -42 22 -91 24 -78 3 3 -7 -2 -5
-13 4 -22 19 -67 16 -101 -6 -20 -14 -21 -13 -18 5 2 11 6 24 9 29 3 5 -5 11
-19 13 -13 3 -26 0 -29 -6 -2 -6 -5 -3 -5 6 -1 9 4 20 9 23 6 4 8 11 4 16 -3
5 8 14 25 20 17 6 31 15 31 21 0 5 4 7 9 4 5 -3 12 5 15 19 4 14 13 25 21 25
8 0 15 4 15 8 0 18 174 60 183 45 4 -6 31 -8 62 -7 30 2 55 -1 55 -5 0 -5 17
-20 39 -34 27 -18 42 -22 49 -15 8 8 9 5 5 -11 -6 -22 23 -65 37 -56 4 3 18
-4 30 -15 18 -15 26 -17 37 -9 9 8 10 15 3 24 -8 9 -4 11 15 7 14 -2 25 -11
25 -18 0 -8 5 -15 10 -15 6 -1 15 -2 20 -3 6 0 15 -8 20 -16 7 -12 10 -11 15
5 4 11 12 30 18 43 9 18 8 25 -2 31 -8 5 -9 11 -4 14 6 4 19 0 29 -8 10 -8 14
-15 7 -15 -12 0 -6 -40 6 -40 4 0 14 8 23 19 9 11 26 17 41 16 19 -2 24 1 20
11 -3 8 0 14 6 14 7 0 14 -7 17 -15 5 -11 11 -12 25 -4 24 12 26 84 4 113 -22
29 -19 33 32 39 38 4 52 12 75 38 17 21 28 46 28 65 0 17 6 37 14 43 8 7 17
23 20 36 4 14 10 25 15 25 5 0 17 26 26 57 27 94 3 187 -70 267 -19 21 -38 50
-42 64 -13 54 -55 116 -97 141 -17 11 -55 23 -84 27 -43 5 -61 14 -87 41 -19
20 -31 41 -28 49 3 10 0 12 -10 9 -10 -4 -17 2 -21 20 -4 14 -24 43 -46 65
-32 32 -47 40 -76 40 -32 0 -35 -2 -23 -16 12 -14 11 -16 -6 -12 -11 2 -19 10
-18 16 5 20 -31 14 -56 -9 l-23 -21 -14 21 c-18 25 -98 32 -88 8 3 -8 -2 -20
-11 -27 -13 -11 -24 -9 -68 14 l-52 26 -325 0 c-220 -1 -331 -4 -344 -12z
m1054 -69 c0 -6 -4 -7 -10 -4 -5 3 -10 11 -10 16 0 6 5 7 10 4 6 -3 10 -11 10
-16z m-1386 -141 c-3 -5 -12 -4 -20 3 -7 6 -11 15 -8 21 3 5 12 4 20 -3 7 -6
11 -15 8 -21z m1760 -154 c4 -10 1 -14 -6 -12 -15 5 -23 28 -10 28 5 0 13 -7
16 -16z m-411 -719 c4 -8 1 -17 -5 -21 -7 -4 -8 -3 -4 4 4 7 2 12 -4 12 -6 0
-8 5 -5 10 8 14 12 13 18 -5z m-1477 -531 c24 -14 41 -30 38 -36 -4 -6 -10 -5
-15 3 -7 11 -9 10 -9 -3 0 -23 3 -23 -70 8 -59 26 -61 26 -82 8 -21 -19 -21
-19 -9 3 26 49 81 56 147 17z m-71 -216 c-1 -13 -9 -24 -18 -26 -13 -3 -14 1
-4 27 12 34 25 33 22 -1z m-194 2 c38 -21 17 -74 -28 -73 -27 1 -33 4 -41 21
-23 43 21 77 69 52z m206 -178 c28 -39 65 -54 97 -42 33 12 53 4 60 -24 3 -12
24 -32 46 -45 22 -12 40 -26 40 -32 0 -25 -86 3 -140 46 -8 7 -31 18 -51 24
-20 6 -49 25 -64 41 -24 25 -29 40 -32 92 l-3 63 14 -48 c7 -27 22 -61 33 -75z
m-84 38 c3 -11 1 -18 -4 -14 -5 3 -9 12 -9 20 0 20 7 17 13 -6z m331 -5 c11 0
16 -7 16 -26 0 -6 -7 -9 -15 -5 -9 3 -20 -4 -28 -21 -19 -35 -31 -14 -22 38 6
34 9 38 22 27 9 -7 21 -13 27 -13z m26 -125 c0 -5 -2 -10 -4 -10 -3 0 -8 5
-11 10 -3 6 -1 10 4 10 6 0 11 -4 11 -10z m-164 -51 c9 -15 -11 -33 -30 -26
-9 4 -13 13 -10 22 7 17 30 20 40 4z m-1456 -126 c0 -22 -2 -25 -10 -13 -13
20 -13 40 0 40 6 0 10 -12 10 -27z m46 -193 c9 -49 14 -95 12 -102 -5 -14 -58
195 -58 227 0 43 29 -37 46 -125z m3064 -14 c0 -14 -8 -32 -17 -42 -17 -17
-18 -17 -21 10 -4 36 4 56 23 56 9 0 15 -9 15 -24z m-434 -26 c0 -23 -21 -27
-29 -6 -5 13 4 22 23 25 3 1 6 -8 6 -19z m29 -40 c3 -5 1 -10 -4 -10 -6 0 -11
5 -11 10 0 6 2 10 4 10 3 0 8 -4 11 -10z m-2625 -106 c0 -24 67 -114 85 -114
7 0 16 12 20 28 3 15 13 37 21 50 13 19 18 21 30 11 11 -9 15 -29 13 -70 -2
-40 3 -65 14 -83 35 -53 9 -126 -45 -126 -17 0 -59 -10 -94 -22 -62 -21 -64
-21 -78 -3 -7 10 -16 46 -20 79 -3 34 -9 85 -12 114 -4 33 -3 52 4 52 22 0 52
66 46 101 -4 26 -3 30 5 19 6 -8 11 -24 11 -36z m2943 31 c-3 -9 -8 -14 -10
-11 -3 3 -2 9 2 15 9 16 15 13 8 -4z m-163 -39 c1 -19 2 -19 11 -3 7 11 22 17
47 17 l36 0 -21 -21 c-16 -17 -35 -22 -83 -24 -33 -1 -58 0 -56 3 3 3 1 11 -4
18 -16 18 13 42 44 37 18 -4 26 -12 26 -27z m-125 -5 c-3 -6 -11 -11 -16 -11
-5 0 -4 6 3 14 14 16 24 13 13 -3z m294 -21 c5 0 6 -11 4 -23 -4 -19 -10 -23
-29 -19 -14 2 -24 0 -24 -7 0 -6 -7 -11 -15 -11 -20 0 -19 5 10 34 22 22 26
23 35 8 5 -9 9 -12 10 -7 0 6 -4 17 -9 25 -6 8 -7 19 -3 25 4 6 8 3 10 -7 2
-10 7 -18 11 -18z m-2779 -335 c0 -27 -3 -32 -18 -28 -12 3 -19 14 -19 32 0
19 6 27 19 28 14 1 18 -5 18 -32z m2193 -596 c6 -42 4 -48 -27 -78 -29 -28
-34 -30 -46 -17 -7 9 -16 14 -20 11 -4 -3 -7 3 -6 13 0 9 -4 16 -11 15 -16 -3
25 63 61 99 34 34 40 28 49 -43z m-126 -146 c17 -16 6 -43 -18 -43 -26 0 -89
27 -89 37 0 5 14 10 32 11 18 2 34 5 36 7 7 7 25 1 39 -12z m-374 -117 c6 -14
-1 -26 -14 -26 -4 0 -7 9 -6 20 1 23 12 26 20 6z m530 -32 c3 -3 1 -14 -5 -24
-10 -15 -4 -35 26 -107 61 -139 106 -247 106 -250 0 -2 -4 -3 -9 -3 -5 0 -15
16 -22 35 -7 19 -17 35 -21 35 -4 0 -7 3 -6 8 1 4 -3 17 -10 30 -7 12 -9 22
-5 22 4 0 3 4 -3 8 -20 13 -77 156 -78 197 -2 52 7 69 27 49z m-522 -36 c0 -7
2 -24 5 -38 2 -14 6 -38 9 -55 3 -16 8 -104 12 -193 5 -135 4 -165 -8 -173
-10 -6 -10 -9 -2 -9 9 0 12 -19 10 -65 -2 -54 -5 -65 -19 -65 -10 0 -18 5 -18
10 0 6 6 10 13 10 7 0 8 3 2 8 -14 10 -15 65 -1 74 8 6 8 8 0 8 -7 0 -11 19
-10 50 0 27 5 50 10 50 5 0 3 7 -4 15 -10 12 -10 15 1 15 9 0 10 3 3 8 -5 4
-11 48 -13 97 -1 50 -3 114 -5 143 -1 31 2 52 9 52 6 0 7 3 0 8 -14 10 -19 62
-6 62 6 0 11 -6 12 -12z m669 -388 c0 -5 -5 -10 -11 -10 -5 0 -7 5 -4 10 3 6
8 10 11 10 2 0 4 -4 4 -10z m40 -105 c0 -5 -5 -3 -10 5 -5 8 -10 20 -10 25 0
6 5 3 10 -5 5 -8 10 -19 10 -25z m17 -37 c2 -18 0 -20 -7 -8 -12 18 -13 30 -2
30 4 0 9 -10 9 -22z m29 -73 c1 -5 5 -18 9 -27 5 -12 3 -18 -6 -18 -7 0 -10 3
-7 6 4 3 0 21 -8 39 -8 19 -14 38 -14 42 1 9 23 -28 26 -42z m-726 -15 c0 -5
-9 -10 -20 -10 -11 0 -20 5 -20 10 0 6 9 10 20 10 11 0 20 -4 20 -10z m-4 -55
c-1 -32 -21 -54 -35 -39 -3 4 0 9 8 12 11 4 11 6 0 13 -12 8 -11 11 1 19 10 6
11 10 3 10 -7 0 -13 5 -13 10 0 6 8 10 19 10 15 0 18 -7 17 -35z m754 5 c0 -5
-5 -10 -11 -10 -5 0 -7 5 -4 10 3 6 8 10 11 10 2 0 4 -4 4 -10z m14 -36 c9
-22 -3 -32 -14 -14 -12 19 -12 30 -1 30 5 0 12 -7 15 -16z m-772 -59 c-3 -27
-9 -35 -24 -35 -17 0 -18 3 -8 15 9 11 9 15 1 15 -7 0 -9 5 -6 10 4 6 12 7 18
3 7 -4 6 0 -2 10 -12 15 -11 17 6 17 16 0 18 -6 15 -35z m789 13 c0 -7 2 -23
5 -35 2 -13 0 -23 -4 -23 -5 0 -9 6 -9 13 0 6 -3 22 -7 35 -5 13 -3 22 3 22 6
0 11 -6 12 -12z m-791 -68 c0 -5 -9 -10 -21 -10 -11 0 -17 5 -14 10 3 6 13 10
21 10 8 0 14 -4 14 -10z m-6 -77 c-3 -32 -7 -80 -10 -108 -3 -27 -6 -70 -8
-95 -2 -25 -5 -45 -6 -45 -2 0 -4 -12 -9 -72 -1 -7 -11 -13 -23 -13 -22 1 -22
1 -5 14 14 11 15 15 5 19 -10 4 -10 8 2 16 12 8 12 11 1 11 -11 0 -11 3 -1 15
10 12 10 15 -1 15 -10 0 -11 2 -2 8 6 4 10 20 9 35 -2 15 1 27 7 27 5 0 4 7
-3 15 -8 10 -9 15 -2 15 6 0 9 7 6 15 -4 9 0 15 7 15 10 0 11 2 2 8 -13 8 -13
29 0 50 5 7 3 12 -3 12 -6 0 -8 5 -3 13 4 6 6 20 4 31 -1 10 3 23 11 27 10 7
10 9 1 9 -7 0 -13 5 -13 10 0 6 9 10 20 10 17 0 19 -5 14 -57z m835 16 c14
-41 14 -59 -1 -59 -6 0 -9 3 -5 6 3 3 -1 23 -8 45 -8 21 -10 39 -6 39 5 0 14
-14 20 -31z m21 -79 c0 -5 -5 -10 -11 -10 -5 0 -7 5 -4 10 3 6 8 10 11 10 2 0
4 -4 4 -10z m13 -40 c3 -11 1 -20 -4 -20 -5 0 -9 2 -9 4 0 2 -3 11 -6 20 -3 9
-2 16 4 16 5 0 12 -9 15 -20z m18 -72 c0 -7 2 -23 5 -35 2 -13 0 -23 -4 -23
-5 0 -9 6 -9 13 0 6 -3 22 -7 35 -5 13 -3 22 3 22 6 0 11 -6 12 -12z m19 -108
c0 -5 -4 -10 -10 -10 -5 0 -10 5 -10 10 0 6 5 10 10 10 6 0 10 -4 10 -10z m7
-70 c1 -11 -2 -20 -8 -20 -5 0 -9 9 -9 20 0 11 4 20 8 20 4 0 8 -9 9 -20z
m-952 0 c3 -5 -3 -10 -14 -10 -12 0 -21 5 -21 10 0 6 6 10 14 10 8 0 18 -4 21
-10z m-5 -30 c0 -5 -7 -10 -15 -10 -8 0 -15 5 -15 10 0 6 7 10 15 10 8 0 15
-4 15 -10z m963 -20 c3 -11 2 -22 -3 -25 -4 -3 -10 6 -12 20 -6 30 7 34 15 5z
m-963 -10 c0 -5 -6 -10 -14 -10 -8 0 -18 5 -21 10 -3 6 3 10 14 10 12 0 21 -4
21 -10z m0 -30 c0 -5 -6 -10 -14 -10 -8 0 -18 5 -21 10 -3 6 3 10 14 10 12 0
21 -4 21 -10z m-10 -30 c0 -5 -7 -10 -15 -10 -8 0 -15 5 -15 10 0 6 7 10 15
10 8 0 15 -4 15 -10z m980 0 c0 -5 -5 -10 -11 -10 -5 0 -7 5 -4 10 3 6 8 10
11 10 2 0 4 -4 4 -10z m-987 -27 c-7 -2 -19 -2 -25 0 -7 3 -2 5 12 5 14 0 19
-2 13 -5z m988 -5 c0 -7 2 -22 4 -33 2 -11 6 -47 9 -80 7 -85 18 -169 22 -177
3 -4 0 -9 -6 -13 -5 -3 -11 0 -11 7 -3 31 -9 75 -14 108 -3 19 -8 64 -11 100
-3 36 -7 73 -9 83 -2 9 1 17 6 17 5 0 9 -6 10 -12z m-994 -24 c-3 -3 -12 -4
-19 -1 -8 3 -5 6 6 6 11 1 17 -2 13 -5z m-4 -31 c-7 -2 -19 -2 -25 0 -7 3 -2
5 12 5 14 0 19 -2 13 -5z m-6 -29 c-3 -3 -12 -4 -19 -1 -8 3 -5 6 6 6 11 1 17
-2 13 -5z m0 -30 c-3 -3 -12 -4 -19 -1 -8 3 -5 6 6 6 11 1 17 -2 13 -5z m-10
-30 c-3 -3 -12 -4 -19 -1 -8 3 -5 6 6 6 11 1 17 -2 13 -5z m-4 -31 c-7 -2 -19
-2 -25 0 -7 3 -2 5 12 5 14 0 19 -2 13 -5z m-6 -29 c-3 -3 -12 -4 -19 -1 -8 3
-5 6 6 6 11 1 17 -2 13 -5z m-10 -30 c-3 -3 -12 -4 -19 -1 -8 3 -5 6 6 6 11 1
17 -2 13 -5z m0 -30 c-3 -3 -12 -4 -19 -1 -8 3 -5 6 6 6 11 1 17 -2 13 -5z
m-10 -30 c-3 -3 -12 -4 -19 -1 -8 3 -5 6 6 6 11 1 17 -2 13 -5z m-10 -30 c-3
-3 -12 -4 -19 -1 -8 3 -5 6 6 6 11 1 17 -2 13 -5z m1095 -24 c5 -36 -7 -50
-16 -17 -8 31 -7 47 3 47 5 0 11 -14 13 -30z m-1092 -6 c0 -2 -7 -4 -15 -4 -8
0 -15 4 -15 10 0 5 7 7 15 4 8 -4 15 -8 15 -10z m-10 -30 c0 -2 -7 -4 -15 -4
-8 0 -15 4 -15 10 0 5 7 7 15 4 8 -4 15 -8 15 -10z m1115 -56 c4 -24 9 -51 11
-60 2 -10 -1 -18 -6 -18 -6 0 -10 6 -11 13 0 6 -2 19 -4 27 -12 55 -14 80 -6
80 4 0 12 -19 16 -42z m-1128 26 c-3 -3 -12 -4 -19 -1 -8 3 -5 6 6 6 11 1 17
-2 13 -5z m-12 -24 c3 -5 1 -10 -4 -10 -6 0 -11 5 -11 10 0 6 2 10 4 10 3 0 8
-4 11 -10z m-10 -30 c3 -5 1 -10 -4 -10 -6 0 -11 5 -11 10 0 6 2 10 4 10 3 0
8 -4 11 -10z m0 -30 c3 -5 -1 -10 -10 -10 -9 0 -13 5 -10 10 3 6 8 10 10 10 2
0 7 -4 10 -10z m-10 -30 c3 -5 1 -10 -4 -10 -6 0 -11 5 -11 10 0 6 2 10 4 10
3 0 8 -4 11 -10z"/>
<path d="M4181 6183 c15 -4 23 -18 27 -46 1 -4 11 -16 24 -27 20 -16 23 -26
21 -82 -1 -34 3 -157 8 -273 15 -322 20 -371 38 -386 6 -5 9 -6 6 -3 -3 4 0
13 6 20 6 7 12 55 15 106 2 51 6 147 8 213 6 140 28 276 50 310 11 17 22 23
38 19 20 -4 159 -15 208 -16 8 -1 21 -5 28 -11 7 -6 12 -6 12 0 0 10 45 10 95
-1 45 -9 189 -11 204 -2 7 4 36 9 64 9 40 2 64 10 103 35 28 17 60 32 72 32
20 0 22 5 22 55 l0 55 -532 -1 c-293 -1 -526 -3 -517 -6z"/>
<path d="M3742 4960 c-12 -10 -19 -21 -15 -23 5 -3 16 6 26 19 21 29 19 30
-11 4z"/>
<path d="M3860 4913 c-14 -3 -33 -12 -42 -20 -10 -9 -18 -11 -18 -6 0 6 -9 13
-20 16 -10 3 -19 2 -18 -2 4 -36 -23 -61 -47 -41 -8 7 -12 5 -12 -5 0 -18 22
-27 53 -19 14 4 21 11 17 18 -3 6 -1 6 8 -1 16 -15 55 -17 64 -3 3 6 15 10 27
10 18 0 79 38 64 41 -3 1 -10 2 -15 3 -5 0 -13 4 -17 9 -4 4 -10 6 -13 6 -3
-1 -17 -4 -31 -6z"/>
<path d="M3670 4879 c0 -11 5 -17 10 -14 6 3 10 13 10 21 0 8 -4 14 -10 14 -5
0 -10 -9 -10 -21z"/>
<path d="M3726 4877 c3 -10 9 -15 12 -12 3 3 0 11 -7 18 -10 9 -11 8 -5 -6z"/>
<path d="M3652 4840 c0 -19 2 -27 5 -17 2 9 2 25 0 35 -3 9 -5 1 -5 -18z"/>
<path d="M3020 4050 c0 -5 5 -10 10 -10 6 0 10 5 10 10 0 6 -4 10 -10 10 -5 0
-10 -4 -10 -10z"/>
<path d="M3510 4038 c0 -4 4 -8 9 -8 6 0 12 4 15 8 3 5 -1 9 -9 9 -8 0 -15 -4
-15 -9z"/>
</g>
</svg>
